<svg width="22" height="26" viewBox="0 0 22 26" fill="none" xmlns="http://www.w3.org/2000/svg">
<path d="M21.5382 20.2619C21.1438 21.1702 20.6765 22.0061 20.1349 22.7748C19.3969 23.824 18.7908 24.5491 18.3262 24.9526C17.6047 25.6119 16.8295 25.9512 16.0007 25.9703C15.407 25.9703 14.6896 25.8021 13.8539 25.4601C13.0156 25.1195 12.2459 24.9526 11.5408 24.9526C10.8028 24.9526 10.0111 25.1195 9.16312 25.4601C8.31649 25.8021 7.63204 25.9813 7.10839 25.9977C6.31536 26.0319 5.52233 25.6844 4.73205 24.9526C4.22765 24.5149 3.5968 23.7625 2.83951 22.6982C2.02861 21.5642 1.36203 20.2441 0.839758 18.7435C0.280377 17.1198 0 15.5494 0 14.0282C0 12.2868 0.37796 10.7835 1.13525 9.52497C1.73174 8.51269 2.5234 7.71518 3.51296 7.1297C4.5039 6.54286 5.57594 6.24328 6.72906 6.22413C7.36128 6.22413 8.19004 6.41838 9.21672 6.8014C10.2434 7.18442 10.9031 7.37867 11.1904 7.37867C11.4075 7.37867 12.1373 7.15022 13.3798 6.69743C14.5521 6.27748 15.5417 6.10375 16.3526 6.17215C18.5516 6.34861 20.2023 7.21041 21.3004 8.76439C19.335 9.9504 18.3633 11.6097 18.3826 13.7396C18.3991 15.3989 19.0052 16.7792 20.1927 17.8749C20.7314 18.3837 21.332 18.7763 22 19.0554C21.8543 19.4754 21.7004 19.8762 21.5382 20.2619ZM16.4983 0.521185C16.4983 1.82073 16.02 3.03546 15.0703 4.15854C13.9213 5.49365 12.5331 6.26653 11.0282 6.14479C11.0089 5.98884 10.9993 5.82469 10.9993 5.65233C10.9993 4.4034 11.5436 3.06829 12.5153 1.97531C12.9991 1.42266 13.6148 0.961662 14.3611 0.595054C15.106 0.233918 15.8097 0.0341985 16.4722 0C16.49 0.175096 16.4983 0.348825 16.4983 0.521185Z" fill="white" fill-opacity="0.9"/>
</svg>
