<svg width="22" height="23" viewBox="0 0 22 23" fill="none" xmlns="http://www.w3.org/2000/svg">
<path d="M21.7455 9.40827H11.2551V13.8505H17.2921C16.7302 16.6733 14.3782 18.2952 11.2551 18.2952C7.5727 18.2952 4.60459 15.2625 4.60459 11.4987C4.60459 7.73618 7.5727 4.70349 11.2551 4.70349C12.8412 4.70349 14.2749 5.27888 15.3999 6.21983L18.6754 2.87436C16.6798 1.09671 14.1212 0 11.2551 0C5.01403 0 0 5.12184 0 11.5C0 17.8782 5.01277 23 11.2551 23C16.8827 23 22 18.8178 22 11.5C22 10.8203 21.898 10.0879 21.7455 9.40827Z" fill="white" fill-opacity="0.9"/>
</svg>
