<svg width="230" height="230" viewBox="0 0 230 230" fill="none" xmlns="http://www.w3.org/2000/svg">
<rect width="230" height="230" fill="#FF3D00"/>
<path d="M115.712 106.994C145.891 107.235 176 99.9263 176 88.6437C176 79.793 146.312 72.0548 115.712 72.0003C85.8202 71.947 55 79.3649 55 88.6437C55 98.9098 85.3917 106.752 115.712 106.994Z" stroke="white" stroke-width="8" stroke-linecap="round"/>
<path d="M55.2513 89C55.2513 98.35 47.6488 157 116.071 157C184.494 157 175.624 96.225 175.624 89" stroke="white" stroke-width="8" stroke-linecap="round"/>
<path d="M85 121C87.1667 119.491 92.8 117.378 98 121" stroke="white" stroke-width="6" stroke-linecap="round"/>
<path d="M133 122C135.167 119.736 140.8 116.567 146 122" stroke="white" stroke-width="6" stroke-linecap="round"/>
<path d="M128 134C122.167 140.269 110.5 141.053 103 134" stroke="white" stroke-width="6" stroke-linecap="round"/>
<path d="M76 87C84.6567 84.2 96.7761 83 105 83" stroke="white" stroke-width="7" stroke-linecap="round"/>
<path d="M97.8621 29C100.23 30.5628 103.545 35.9902 97.8621 41.7869C90.7582 49.0328 99.1157 54.5738 99.1157 55" stroke="white" stroke-width="8" stroke-linecap="round"/>
<path d="M132.862 29C135.23 30.5628 138.545 35.9902 132.862 41.7869C125.758 49.0328 134.116 54.5738 134.116 55" stroke="white" stroke-width="8" stroke-linecap="round"/>
<path d="M115.816 15C118.973 16.9235 123.393 23.6033 115.816 30.7377C106.344 39.6557 117.488 46.4754 117.488 47" stroke="white" stroke-width="8" stroke-linecap="round"/>
<path d="M60.6 206V200.4H72.56C73.0933 200.4 73.5733 200.267 74 200C74.4267 199.733 74.76 199.387 75 198.96C75.2667 198.533 75.4 198.067 75.4 197.56C75.4 197.027 75.2667 196.547 75 196.12C74.76 195.693 74.4267 195.347 74 195.08C73.5733 194.813 73.0933 194.68 72.56 194.68H68.24C66.6133 194.68 65.1333 194.36 63.8 193.72C62.4667 193.08 61.4 192.147 60.6 190.92C59.8267 189.667 59.44 188.173 59.44 186.44C59.44 184.733 59.8133 183.253 60.56 182C61.3067 180.747 62.32 179.773 63.6 179.08C64.88 178.36 66.2933 178 67.84 178H80.2V183.6H68.6C68.12 183.6 67.68 183.72 67.28 183.96C66.88 184.2 66.5733 184.52 66.36 184.92C66.1467 185.32 66.04 185.76 66.04 186.24C66.04 186.72 66.1467 187.16 66.36 187.56C66.5733 187.933 66.88 188.24 67.28 188.48C67.68 188.72 68.12 188.84 68.6 188.84H73.12C74.9067 188.84 76.4533 189.187 77.76 189.88C79.0933 190.547 80.12 191.493 80.84 192.72C81.5867 193.92 81.96 195.333 81.96 196.96C81.96 198.88 81.5733 200.52 80.8 201.88C80.0533 203.213 79.04 204.24 77.76 204.96C76.48 205.653 75.0667 206 73.52 206H60.6ZM95.7144 206.48C93.6077 206.48 91.7144 206.013 90.0344 205.08C88.3544 204.147 87.021 202.867 86.0344 201.24C85.0744 199.613 84.5944 197.787 84.5944 195.76C84.5944 193.707 85.0744 191.88 86.0344 190.28C87.021 188.653 88.3544 187.373 90.0344 186.44C91.7144 185.48 93.6077 185 95.7144 185C97.821 185 99.701 185.48 101.354 186.44C103.034 187.373 104.354 188.653 105.314 190.28C106.301 191.88 106.794 193.707 106.794 195.76C106.794 197.787 106.301 199.613 105.314 201.24C104.354 202.867 103.034 204.147 101.354 205.08C99.6744 206.013 97.7944 206.48 95.7144 206.48ZM95.7144 201.08C96.701 201.08 97.5544 200.84 98.2744 200.36C98.9944 199.88 99.5544 199.24 99.9544 198.44C100.354 197.64 100.554 196.733 100.554 195.72C100.554 194.733 100.354 193.84 99.9544 193.04C99.5544 192.24 98.9944 191.6 98.2744 191.12C97.5544 190.64 96.701 190.4 95.7144 190.4C94.7277 190.4 93.861 190.64 93.1144 191.12C92.3944 191.6 91.8344 192.24 91.4344 193.04C91.0344 193.84 90.8344 194.733 90.8344 195.72C90.8344 196.733 91.0344 197.64 91.4344 198.44C91.8344 199.24 92.3944 199.88 93.1144 200.36C93.861 200.84 94.7277 201.08 95.7144 201.08ZM110.316 206V191.52C110.316 189.653 110.85 188.187 111.916 187.12C112.983 186.053 114.463 185.52 116.356 185.52H122.316V190.56H117.876C117.503 190.56 117.183 190.693 116.916 190.96C116.65 191.2 116.516 191.52 116.516 191.92V206H110.316ZM135.926 185C137.659 185 139.192 185.28 140.526 185.84C141.886 186.373 143.032 187.147 143.966 188.16C144.926 189.147 145.659 190.32 146.166 191.68C146.672 193.013 146.926 194.493 146.926 196.12C146.926 198.147 146.499 199.947 145.646 201.52C144.819 203.067 143.672 204.28 142.206 205.16C140.739 206.04 139.032 206.48 137.086 206.48C136.259 206.48 135.472 206.373 134.726 206.16C134.006 205.947 133.339 205.64 132.726 205.24C132.139 204.84 131.646 204.347 131.246 203.76H131.126V214.68H124.926V196.12C124.926 193.853 125.379 191.893 126.286 190.24C127.192 188.587 128.472 187.307 130.126 186.4C131.779 185.467 133.712 185 135.926 185ZM135.926 190.36C134.966 190.36 134.126 190.6 133.406 191.08C132.712 191.533 132.179 192.173 131.806 193C131.432 193.8 131.246 194.707 131.246 195.72C131.246 196.733 131.432 197.64 131.806 198.44C132.179 199.24 132.712 199.88 133.406 200.36C134.126 200.813 134.966 201.04 135.926 201.04C136.886 201.04 137.712 200.813 138.406 200.36C139.099 199.88 139.632 199.24 140.006 198.44C140.406 197.64 140.606 196.733 140.606 195.72C140.606 194.707 140.406 193.8 140.006 193C139.632 192.173 139.099 191.533 138.406 191.08C137.712 190.6 136.886 190.36 135.926 190.36ZM158.833 206.48C157.02 206.48 155.42 206.013 154.033 205.08C152.647 204.147 151.567 202.893 150.793 201.32C150.02 199.72 149.633 197.92 149.633 195.92C149.633 193.84 150.087 191.987 150.993 190.36C151.9 188.707 153.18 187.4 154.833 186.44C156.513 185.48 158.487 185 160.753 185C163.047 185 164.993 185.48 166.593 186.44C168.22 187.373 169.46 188.667 170.313 190.32C171.193 191.947 171.633 193.773 171.633 195.8V206H165.553V202.72H165.393C165.02 203.44 164.54 204.093 163.953 204.68C163.367 205.24 162.647 205.68 161.793 206C160.967 206.32 159.98 206.48 158.833 206.48ZM160.673 201.12C161.607 201.12 162.42 200.893 163.113 200.44C163.833 199.96 164.38 199.307 164.753 198.48C165.127 197.653 165.313 196.733 165.313 195.72C165.313 194.733 165.127 193.84 164.753 193.04C164.38 192.24 163.833 191.613 163.113 191.16C162.42 190.68 161.607 190.44 160.673 190.44C159.713 190.44 158.873 190.68 158.153 191.16C157.433 191.613 156.887 192.24 156.513 193.04C156.14 193.84 155.953 194.733 155.953 195.72C155.953 196.733 156.14 197.653 156.513 198.48C156.887 199.307 157.433 199.96 158.153 200.44C158.873 200.893 159.713 201.12 160.673 201.12Z" fill="white"/>
</svg>
